<?xml version="1.0" standalone="no"?>
<!DOCTYPE svg PUBLIC "-//W3C//DTD SVG 20010904//EN"
 "http://www.w3.org/TR/2001/REC-SVG-20010904/DTD/svg10.dtd">
<svg version="1.0" xmlns="http://www.w3.org/2000/svg"
 width="1280.000000pt" height="1280.000000pt" viewBox="0 0 1280.000000 1280.000000"
 preserveAspectRatio="xMidYMid meet">
<metadata>
Created by potrace 1.16, written by Peter Selinger 2001-2019
</metadata>
<g transform="translate(0.000000,1280.000000) scale(0.100000,-0.100000)"
fill="#000000" stroke="none">
<path d="M6220 10035 c-127 -26 -241 -76 -345 -150 -33 -24 -1331 -1316 -2885
-2872 -2157 -2159 -2833 -2841 -2859 -2885 -94 -162 -131 -300 -131 -486 0
-391 243 -727 616 -851 187 -62 422 -54 616 20 175 68 39 -63 2701 2597 l2467
2467 2468 -2467 c2661 -2660 2525 -2529 2700 -2597 128 -49 226 -64 376 -58
152 6 239 27 361 88 248 124 424 351 480 621 20 91 19 279 -1 376 -17 84 -63
200 -115 290 -26 44 -702 726 -2859 2885 -1554 1556 -2852 2848 -2885 2872
-107 76 -238 131 -369 154 -80 15 -256 12 -336 -4z"/>
</g>
</svg>
